<svg width="106" height="107" viewBox="0 0 106 107" fill="none" xmlns="http://www.w3.org/2000/svg">
<path d="M52.8341 101.442C26.2663 101.442 4.73438 79.9099 4.73438 53.3421C4.73438 26.7742 26.2729 5.24231 52.8341 5.24231C79.3954 5.24231 100.934 26.7742 100.934 53.3421" stroke="#7E22CE" stroke-width="9.27232" stroke-miterlimit="10"/>
<path d="M33.7207 76.2093H39.6687C44.7774 76.2093 48.9212 72.0655 48.9212 66.9568V56.2966C48.9212 51.1879 53.065 47.0441 58.1737 47.0441H58.8346C63.9433 47.0441 68.0871 51.1879 68.0871 56.2966V92.0707C68.0871 97.1794 72.2309 101.323 77.3396 101.323C82.4483 101.323 86.5921 97.1794 86.5921 92.0707V80.8355C86.5921 75.7268 90.7359 71.583 95.8446 71.583H105.097" stroke="#7E22CE" stroke-width="9.27232" stroke-miterlimit="10"/>
</svg>
