<svg width="271" height="59" viewBox="0 0 271 59" fill="none" xmlns="http://www.w3.org/2000/svg">
<g clip-path="url(#clip0_6_2842)">
<path d="M94.0667 8.0263C104.841 8.0263 114.441 15.8961 114.441 28.6806C114.441 34.2639 112.6 38.8981 109.583 42.3566L114.329 47.6056L109.249 51.9594L104.392 46.599C101.322 48.3282 97.7482 49.2774 94.0631 49.2774C83.3459 49.2774 73.7432 41.4075 73.7432 28.677C73.7432 15.9465 83.3459 8.02271 94.0631 8.02271L94.0667 8.0263ZM94.0667 41.7994C95.796 41.7994 97.5828 41.465 99.1467 40.7963L92.9486 33.9871L98.0861 29.5758L104.284 36.4965C105.625 34.4868 106.463 31.8623 106.463 28.6267C106.463 19.6962 100.211 15.4539 94.0703 15.4539C87.9297 15.4539 81.7316 19.6962 81.7316 28.6267C81.7316 37.5571 87.9837 41.7994 94.0703 41.7994H94.0667Z" fill="white"/>
<path d="M138.168 45.4847C136.662 48.0517 133.48 49.1698 130.575 49.1698C123.931 49.1698 120.135 44.3127 120.135 38.3411V20.98H127.559V36.8347C127.559 39.905 129.123 42.3605 132.581 42.3605C136.04 42.3605 137.773 40.1279 137.773 36.9462V20.98H145.197V43.4786C145.197 45.5998 145.366 47.498 145.477 48.4471H138.387C138.276 47.8899 138.165 46.6064 138.165 45.4883L138.168 45.4847Z" fill="white"/>
<path d="M177.637 40.5737C176.242 45.3194 171.888 49.2812 165.133 49.2812C157.597 49.2812 150.953 43.8669 150.953 34.5985C150.953 25.8335 157.428 20.1423 164.464 20.1423C172.948 20.1423 178.028 25.5567 178.028 34.3756C178.028 35.4362 177.917 36.5543 177.917 36.6658H158.266C158.435 40.2933 161.505 42.9178 165.186 42.9178C168.649 42.9178 170.547 41.1885 171.438 38.7294L177.637 40.5701V40.5737ZM170.716 31.5858C170.604 28.8499 168.818 26.1714 164.575 26.1714C160.725 26.1714 158.604 29.0728 158.435 31.5858H170.716Z" fill="white"/>
<path d="M187.908 39.3979C188.077 41.5766 189.695 43.5863 192.931 43.5863C195.386 43.5863 196.558 42.3028 196.558 40.8504C196.558 39.6208 195.72 38.6178 193.599 38.172L189.972 37.3343C184.669 36.1623 182.267 32.9805 182.267 29.1265C182.267 24.2155 186.621 20.1385 192.539 20.1385C200.355 20.1385 202.979 25.1071 203.313 28.0659L197.115 29.4608C196.892 27.843 195.72 25.7758 192.593 25.7758C190.64 25.7758 189.077 26.9478 189.077 28.5117C189.077 29.8527 190.08 30.6868 191.59 30.9672L195.497 31.8049C200.912 32.923 203.648 36.2162 203.648 40.2356C203.648 44.7008 200.186 49.2775 192.984 49.2775C184.723 49.2775 181.875 43.917 181.541 40.7928L187.904 39.3979H187.908Z" fill="white"/>
<path d="M214.31 38.675C217.158 38.675 219.448 40.9652 219.448 43.755C219.448 46.5449 217.158 48.835 214.31 48.835C211.463 48.835 209.23 46.5449 209.23 43.755C209.23 40.9652 211.521 38.675 214.31 38.675Z" fill="white"/>
<path d="M251.826 36.2162H232.901L228.044 48.4398H224.247L240.267 8.86047H244.509L260.53 48.4398H256.733L251.822 36.2162H251.826ZM234.184 32.9769H250.542L242.334 12.3766L234.184 32.9769Z" fill="white"/>
<path d="M267.397 48.4433V8.86401H270.971V48.4433H267.397Z" fill="white"/>
<path d="M29.0163 55.7021C14.5637 55.7021 2.85059 43.989 2.85059 29.5364C2.85059 15.0838 14.5673 3.37073 29.0163 3.37073C43.4653 3.37073 55.182 15.0838 55.182 29.5364" stroke="white" stroke-width="5.04403" stroke-miterlimit="10"/>
<path d="M18.6191 41.9759H21.8548C24.6339 41.9759 26.888 39.7217 26.888 36.9426V31.1436C26.888 28.3645 29.1422 26.1104 31.9213 26.1104H32.2808C35.0599 26.1104 37.3141 28.3645 37.3141 31.1436V50.6043C37.3141 53.3834 39.5682 55.6375 42.3473 55.6375C45.1264 55.6375 47.3806 53.3834 47.3806 50.6043V44.4925C47.3806 41.7134 49.6347 39.4592 52.4138 39.4592H57.4471" stroke="white" stroke-width="5.04403" stroke-miterlimit="10"/>
</g>
<defs>
<clipPath id="clip0_6_2842">
<rect width="270.641" height="57.3754" fill="white" transform="translate(0.330078 0.850342)"/>
</clipPath>
</defs>
</svg>
