<svg width="1233" height="1080" viewBox="0 0 1233 1080" fill="none" xmlns="http://www.w3.org/2000/svg">
<mask id="mask0_6_2718" style="mask-type:alpha" maskUnits="userSpaceOnUse" x="0" y="-8" width="1233" height="1088">
<rect x="0.000976562" y="-7.69592" width="1232.64" height="1087.7" fill="url(#paint0_linear_6_2718)"/>
</mask>
<g mask="url(#mask0_6_2718)">
<g style="mix-blend-mode:luminosity">
<path style="mix-blend-mode:color-dodge" opacity="0.32" d="M1688.22 881.945C1790.32 492.153 1587.29 101.359 1234.76 9.08225C882.218 -83.1944 513.663 157.99 411.567 547.782C309.471 937.574 512.495 1328.37 865.033 1420.65C1217.57 1512.92 1586.13 1271.74 1688.22 881.945Z" fill="url(#paint1_radial_6_2718)"/>
<path d="M-303.237 834.514C6.36232 655.926 28.7617 1208.32 102.695 1134.05C155.593 1080.91 158.678 909.124 154.404 828.698C147.789 704.743 232.691 640.966 310.625 843.046C378.634 1019.38 495.433 1184.53 568.821 1112.67C677.95 1005.79 511.967 472.171 675.319 411.488C786.291 370.309 944.51 954.355 1019.62 826.551C1106.99 678.007 1277.43 620.694 1518.14 912.26" stroke="url(#paint2_linear_6_2718)" stroke-width="2.56532" stroke-linecap="round" stroke-linejoin="round" stroke-dasharray="0.01 6.43"/>
<g opacity="0.97">
<path d="M-305.961 852.439C4.12181 677.713 25.2581 1195.67 101.473 1125.23C114.257 1113.41 123.922 1095.08 132.301 1073.6C159.098 1004.97 163.795 896.4 162.268 837.27C159.609 717.899 238.04 650.342 317.354 840.283C320.448 847.679 323.783 855.021 327.161 862.35C398.405 1018.39 508.35 1171.73 579.449 1104.1C687.926 1000.77 525.712 478.415 686.093 416.451C737.48 396.562 799.907 510.934 859.614 625.471C926.293 753.14 985.778 877.121 1024.22 809.554C1107.73 663.044 1272.71 604.002 1509.13 881.81" stroke="url(#paint3_linear_6_2718)" stroke-width="2.56532" stroke-linecap="round" stroke-linejoin="round" stroke-dasharray="0.01 6.41"/>
</g>
<g opacity="0.93">
<path d="M-308.708 870.371C1.85211 699.486 21.6614 1183.03 100.193 1116.46C113.115 1105.44 122.827 1087.91 132.092 1068.1C161.516 1005.11 169.626 902.732 170.074 845.884C170.94 731.07 243.294 659.866 324.018 837.54C327.147 844.385 330.709 851.115 334.143 857.956C408.185 1002.77 517.991 1162.14 590.019 1095.58C697.93 995.758 539.469 484.703 696.823 421.499C747.274 401.181 809.209 510.049 868.991 620.71C935.335 743.436 991.625 860.217 1028.98 792.481C1108.64 648.069 1268.11 587.219 1500.26 851.291" stroke="url(#paint4_linear_6_2718)" stroke-width="2.56532" stroke-linecap="round" stroke-linejoin="round" stroke-dasharray="0.01 6.41"/>
</g>
<g opacity="0.9">
<path d="M-311.351 888.177C-0.393746 721.252 17.9819 1170.42 98.9083 1107.66C112.076 1097.41 121.77 1080.71 131.864 1062.61C164.017 1005.06 175.573 909.053 177.882 854.499C182.55 744.223 248.52 669.518 330.699 834.77C333.827 841.098 337.531 847.243 341.141 853.534C417.711 987.225 527.523 1152.56 600.565 1086.97C707.788 990.656 553.23 490.92 707.528 426.462C757.043 405.715 818.59 509.258 878.344 615.863C944.409 733.605 997.44 843.207 1033.6 775.266C1109.44 632.993 1263.38 570.223 1491.27 820.601" stroke="url(#paint5_linear_6_2718)" stroke-width="2.56532" stroke-linecap="round" stroke-linejoin="round" stroke-dasharray="0.01 6.41"/>
</g>
<g opacity="0.86">
<path d="M-314.156 906.222C-2.6501 742.997 14.1931 1157.78 97.6412 1098.86C111.054 1089.37 120.718 1073.46 131.66 1057.13C166.622 1004.84 181.516 915.373 185.687 863.112C194.142 757.334 253.75 679.261 337.361 832.028C340.531 837.826 344.391 843.356 348.114 849.119C427.248 971.653 537.05 1142.99 611.12 1078.4C717.699 985.583 566.93 497.178 718.264 431.461C766.822 410.291 827.862 508.429 887.707 611.059C953.466 723.802 1003.3 826.275 1038.18 758.297C1110.26 618.165 1258.64 553.651 1482.2 790.101" stroke="url(#paint6_linear_6_2718)" stroke-width="2.56532" stroke-linecap="round" stroke-linejoin="round" stroke-dasharray="0.01 6.4"/>
</g>
<g opacity="0.83">
<path d="M-316.858 924.14C-4.88981 764.784 10.322 1145.15 96.3628 1090.08C110.015 1081.34 119.726 1066.16 131.431 1051.64C169.445 1004.41 187.484 921.686 193.494 871.726C205.738 770.444 258.942 689.322 344.027 829.285C347.218 834.56 351.255 839.47 355.112 844.696C436.689 956.067 546.573 1133.46 621.685 1069.85C727.374 980.422 580.676 503.422 729.002 436.529C776.618 414.91 837.172 507.636 897.122 606.333C962.545 714.062 1009.08 809.462 1042.96 741.217C1111.32 603.312 1254.11 536.897 1473.35 759.667" stroke="url(#paint7_linear_6_2718)" stroke-width="2.56532" stroke-linecap="round" stroke-linejoin="round" stroke-dasharray="0.01 6.43"/>
</g>
<g opacity="0.79">
<path d="M-319.583 942.065C-7.14493 786.529 6.42862 1132.47 95.0756 1081.28C108.966 1073.29 118.817 1058.84 131.249 1046.22C172.508 1003.92 193.455 928.091 201.321 880.404C217.365 783.661 264.237 699.632 350.718 826.628C353.958 831.394 358.166 835.662 362.163 840.374C446.206 940.502 556.102 1123.88 632.312 1061.35C737.159 975.319 594.476 509.696 739.768 441.542C786.489 419.551 846.515 506.808 906.535 601.537C971.63 704.273 1015.08 792.532 1047.67 724.137C1112.35 588.466 1249.47 520.128 1464.41 729.147" stroke="url(#paint8_linear_6_2718)" stroke-width="2.56532" stroke-linecap="round" stroke-linejoin="round" stroke-dasharray="0.01 6.43"/>
</g>
<g opacity="0.76">
<path d="M-322.35 960.004C-9.4344 808.237 2.33048 1119.8 93.796 1072.51C107.911 1065.22 118.001 1051.52 130.992 1040.64C175.822 1003.12 199.382 934.205 209.1 888.932C228.912 796.622 269.594 709.991 357.419 823.78C361.108 828.016 365.025 832.049 369.153 835.859C455.592 924.745 565.541 1114.17 642.906 1052.68C746.904 970.087 608.257 515.906 750.521 446.441C796.286 423.958 855.791 505.838 916.022 596.6C980.768 694.351 1021.08 775.51 1052.45 706.916C1113.27 573.582 1244.72 503.208 1455.36 698.569" stroke="url(#paint9_linear_6_2718)" stroke-width="2.56532" stroke-linecap="round" stroke-linejoin="round" stroke-dasharray="0.01 6.4"/>
</g>
<g opacity="0.72">
<path d="M-324.947 977.888C-11.5973 829.976 -1.70336 1107.05 92.6156 1063.68C106.771 1057.18 117.375 1044.2 130.834 1035.01C179.548 1002.28 205.419 940.448 216.957 897.412C240.543 809.556 275.253 720.56 364.007 820.944C367.811 824.649 371.833 828.124 376.051 831.35C464.871 908.951 574.908 1104.45 653.343 1044.03C756.303 964.802 621.901 522.206 761.131 451.481C805.96 428.568 864.922 505.007 925.194 591.857C989.541 684.614 1026.77 758.703 1056.92 689.889C1114.32 558.778 1240.06 486.517 1446.35 668.048" stroke="url(#paint10_linear_6_2718)" stroke-width="2.56532" stroke-linecap="round" stroke-linejoin="round" stroke-dasharray="0.01 6.43"/>
</g>
<g opacity="0.69">
<path d="M-327.793 995.876C-13.9441 851.727 -5.96286 1094.25 91.2504 1054.93C105.539 1049.14 116.663 1036.98 130.559 1029.67C183.459 1001.81 211.363 946.839 224.712 906.16C252.072 822.757 281.14 731.621 370.705 818.309C374.104 821.591 378.718 823.897 383.039 827.048C474.148 893.37 584.31 1094.91 663.899 1035.54C765.985 959.45 635.603 528.394 771.827 456.422C815.692 432.995 874.006 504.099 934.545 587.01C998.445 674.626 1032.66 741.786 1061.56 672.737C1115.41 543.982 1235.36 469.698 1437.35 637.499" stroke="url(#paint11_linear_6_2718)" stroke-width="2.56532" stroke-linecap="round" stroke-linejoin="round" stroke-dasharray="0.01 6.41"/>
</g>
<g opacity="0.65">
<path d="M-330.516 1013.8C-16.1079 873.678 -5.50351 1092.67 89.9516 1046.09C103.699 1039.34 117.311 1032.17 130.338 1024.13C190.804 1011.84 217.353 953.075 232.506 914.731C263.634 835.761 287.553 742.63 377.357 815.523C380.847 818.353 385.54 819.953 390.03 822.604C483.308 877.638 593.679 1085.2 674.465 1026.99C775.549 954.16 649.363 534.681 782.579 461.533C825.536 437.763 883.337 503.299 943.945 582.312C1007.44 665.055 1038.63 725.053 1066.25 655.734C1116.62 529.385 1230.74 453.042 1428.37 607.134" stroke="url(#paint12_linear_6_2718)" stroke-width="2.56532" stroke-linecap="round" stroke-linejoin="round" stroke-dasharray="0.01 6.41"/>
</g>
<g opacity="0.62">
<path d="M-333.241 1031.73C-18.3704 895.472 -10.2431 1080.35 88.7841 1037.37C102.722 1031.29 116.666 1025.24 130.221 1018.69C194.34 1012.61 223.461 959.39 240.418 923.382C275.512 848.734 308.162 737.283 384.134 812.839C388.134 814.473 392.515 816.125 397.117 818.247C492.514 862.056 603.138 1075.55 685.134 1018.48C785.187 948.893 663.22 540.983 793.381 466.511C835.395 442.291 892.568 502.413 953.375 577.418C1016.38 655.172 1044.54 708.179 1070.97 638.463C1117.85 514.52 1226.11 436.153 1419.4 576.508" stroke="url(#paint13_linear_6_2718)" stroke-width="2.56532" stroke-linecap="round" stroke-linejoin="round" stroke-dasharray="0.01 6.41"/>
</g>
<g opacity="0.58">
<path d="M-336.001 1049.69C-20.7404 916.854 -18.8535 1055.34 87.4205 1028.55C102.1 1024.87 115.155 1010.59 129.913 1013.18C196.61 1024.92 229.407 965.639 248.126 931.98C287.157 861.781 314.927 746.019 390.7 810.081C394.792 811.121 399.258 812.23 404.015 813.809C501.438 846.47 612.401 1065.8 695.557 1009.93C794.49 943.45 676.781 547.24 803.957 471.515C845.034 446.865 901.567 501.532 962.619 572.675C1025.11 645.45 1050.49 691.382 1075.53 621.522C1119.04 500.022 1221.36 419.516 1410.29 546.205" stroke="url(#paint14_linear_6_2718)" stroke-width="2.56532" stroke-linecap="round" stroke-linejoin="round" stroke-dasharray="0.01 6.4"/>
</g>
<g opacity="0.55">
<path d="M-338.725 1067.61C-22.9364 938.416 -23.2076 1042.16 86.1405 1019.78C100.933 1016.74 114.653 1008.8 129.683 1007.68C201.152 1002.39 235.473 971.897 255.933 940.594C298.929 874.788 321.769 754.777 397.364 807.339C401.939 807.784 406.487 808.47 410.99 809.394C510.388 830.97 621.67 1056.07 706.157 1001.35C804.103 937.957 690.525 553.485 814.716 476.507C854.879 451.422 910.685 500.659 972.047 567.851C1033.94 635.673 1056.53 674.58 1080.24 604.421C1120.4 485.399 1216.76 402.783 1401.32 515.813" stroke="url(#paint15_linear_6_2718)" stroke-width="2.56532" stroke-linecap="round" stroke-linejoin="round" stroke-dasharray="0.01 6.41"/>
</g>
<g opacity="0.52">
<path d="M-341.464 1085.56C-25.2835 960.237 -27.567 1028.9 84.8544 1010.98C99.7522 1008.57 114.128 1001.95 129.475 1002.18C205.492 1003.47 241.583 978.07 263.739 949.208C310.751 887.801 328.612 763.534 404.029 804.596C408.688 804.409 413.353 804.541 417.994 804.992C519.338 815.61 630.919 1046.27 716.714 992.781C813.385 932.45 704.277 559.751 825.433 481.511C864.66 455.998 919.74 499.806 981.446 563.153C1042.62 625.942 1062.56 657.784 1084.86 587.226C1121.76 470.705 1212.07 385.985 1392.26 485.284" stroke="url(#paint16_linear_6_2718)" stroke-width="2.56532" stroke-linecap="round" stroke-linejoin="round" stroke-dasharray="0.01 6.4"/>
</g>
<g opacity="0.48">
<path d="M-344.191 1103.49C-27.5541 981.94 -31.942 1015.52 83.5654 1002.19C98.6106 1000.45 113.565 995.127 129.249 996.712C209.677 1004.81 247.638 984.448 271.543 957.822C322.627 900.845 335.451 772.293 410.712 801.848C415.424 801.055 420.189 800.63 424.966 800.577C528.289 800.414 640.18 1036.45 727.269 984.213C822.784 926.954 718.019 565.996 836.181 486.623C874.472 460.681 928.762 499.081 990.709 558.405C1051.31 616.326 1068.54 641.165 1089.47 570.365C1123.15 456.379 1207.38 369.492 1383.18 455.138" stroke="url(#paint17_linear_6_2718)" stroke-width="2.56532" stroke-linecap="round" stroke-linejoin="round" stroke-dasharray="0.01 6.41"/>
</g>
<g opacity="0.45">
<path d="M-346.95 1121.45C-29.8842 1003.59 -36.2981 1002.05 82.3082 993.404C97.4376 992.299 112.935 988.305 129.042 991.211C213.649 1006.43 253.768 990.756 279.344 966.414C334.541 913.923 342.231 781.07 417.371 799.083C422.144 797.697 427.026 796.717 431.964 796.154C537.267 785.14 649.403 1026.57 737.834 975.666C832.131 921.357 731.764 572.24 846.914 491.529C884.241 465.144 937.699 498.149 1000.17 553.453C1060.08 606.498 1074.74 624.266 1094.23 553.129C1124.74 441.66 1202.85 352.639 1374.26 424.682" stroke="url(#paint18_linear_6_2718)" stroke-width="2.56532" stroke-linecap="round" stroke-linejoin="round" stroke-dasharray="0.01 6.4"/>
</g>
<g opacity="0.41">
<path d="M-349.673 1139.38C-32.1088 1025.28 -40.6177 988.468 81.0226 984.608C96.2858 984.142 112.276 981.541 128.826 985.76C217.416 1008.14 259.912 997.107 287.159 975.05C346.476 927.066 349.145 789.829 424.043 796.363C428.88 794.365 433.89 792.817 439.011 791.74C546.39 770.031 658.661 1016.66 748.463 967.099C841.521 915.747 745.652 578.487 857.681 496.542C894.066 469.707 946.647 497.402 1009.58 548.657C1068.72 596.852 1080.92 607.515 1098.94 536.049C1126.36 427.139 1198.27 335.948 1365.31 394.473" stroke="url(#paint19_linear_6_2718)" stroke-width="2.56532" stroke-linecap="round" stroke-linejoin="round" stroke-dasharray="0.01 6.4"/>
</g>
<g opacity="0.38">
<path d="M-352.426 1157.36C-34.3622 1046.95 -44.909 974.83 79.75 975.853C95.1546 975.976 111.594 974.782 128.611 980.238C220.982 1009.89 266.07 1003.43 294.965 983.663C358.444 940.244 356.009 798.58 430.708 793.62C435.577 791.05 440.678 788.946 445.943 787.337C555.42 754.998 667.764 1006.7 758.957 958.551C850.776 910.085 759.226 584.786 868.334 501.567C903.783 474.303 955.438 496.68 1018.88 543.873C1077.22 587.275 1087.04 590.805 1103.53 518.959C1127.92 412.617 1193.57 319.27 1356.21 364.191" stroke="url(#paint20_linear_6_2718)" stroke-width="2.56532" stroke-linecap="round" stroke-linejoin="round" stroke-dasharray="0.01 6.4"/>
</g>
<g opacity="0.34">
<path d="M-355.159 1175.26C-36.6248 1068.68 -49.1719 961.066 78.4767 967.028C93.9869 967.775 110.848 967.973 128.373 974.723C224.356 1011.7 272.19 1009.79 302.764 992.255C370.397 953.451 380.957 842.278 437.365 790.856C441.5 787.184 447.272 785.103 452.917 782.922C564.662 739.897 676.901 996.636 769.484 949.968C860.045 904.324 773.026 590.989 879.043 506.551C913.577 478.851 964.242 496.001 1028.25 539.069C1085.71 577.699 1093.26 574.04 1108.16 501.765C1129.59 397.99 1188.98 302.487 1347.18 333.819" stroke="url(#paint21_linear_6_2718)" stroke-width="2.56532" stroke-linecap="round" stroke-linejoin="round" stroke-dasharray="0.01 6.4"/>
</g>
<g opacity="0.31">
<path d="M-357.876 1193.21C-38.9117 1090.24 -53.3611 947.231 77.1979 958.253C92.8427 959.568 110.069 961.199 128.165 969.223C227.604 1013.48 278.34 1016.16 310.571 1000.87C382.358 966.75 374.297 826.157 444.051 788.107C449.273 785.262 454.057 781.266 459.893 778.506C573.92 724.839 686.034 986.55 780.105 941.522C869.372 898.663 786.834 597.354 889.795 511.663C923.393 483.534 973.024 495.542 1037.65 534.371C1094.21 568.334 1099.57 557.411 1112.88 484.869C1131.42 383.663 1184.45 285.988 1338.24 303.837" stroke="url(#paint22_linear_6_2718)" stroke-width="2.56532" stroke-linecap="round" stroke-linejoin="round" stroke-dasharray="0.01 6.43"/>
</g>
<g opacity="0.27">
<path d="M-360.615 1211.16C-41.1721 1111.9 -57.522 933.341 75.8911 949.393C91.7259 951.375 109.254 954.319 127.922 963.687C230.733 1015.18 284.462 1022.52 318.35 1009.4C394.289 980.035 381.162 832.488 450.695 785.301C455.969 781.735 460.884 777.344 466.869 774.02C583.219 709.768 695.139 976.38 790.713 932.82C878.694 892.699 800.502 603.506 900.563 516.535C933.225 487.977 981.785 494.948 1047.06 529.434C1102.7 558.829 1105.97 540.542 1117.59 467.647C1133.3 368.99 1179.94 269.179 1329.37 273.58" stroke="url(#paint23_linear_6_2718)" stroke-width="2.56532" stroke-linecap="round" stroke-linejoin="round" stroke-dasharray="0.01 6.43"/>
</g>
<g opacity="0.24">
<path d="M-363.376 1229.12C-43.434 1133.55 -61.6129 919.38 74.6303 940.681C93.2505 943.269 111.244 949.222 127.732 958.25C233.795 1016.97 290.316 1028.04 326.176 1018.08C406.871 995.648 387.589 839.217 457.379 782.622C462.614 777.983 468.118 773.657 473.864 769.668C592.581 694.675 704.237 966.117 801.184 924.279C887.886 886.845 814.266 609.744 911.193 521.567C942.932 492.623 990.4 494.634 1056.36 524.65C1111 549.455 1112.28 523.842 1122.16 450.565C1135.11 354.435 1175.31 252.48 1320.38 243.519" stroke="url(#paint24_linear_6_2718)" stroke-width="2.56532" stroke-linecap="round" stroke-linejoin="round" stroke-dasharray="0.01 6.41"/>
</g>
<g opacity="0.2">
<path d="M-366.122 1247.05C-45.7012 1155.18 -65.6452 905.378 73.4292 931.858C92.5662 935.509 110.885 942.589 127.502 952.757C236.754 1018.65 296.708 1035.46 333.982 1026.69C418.106 1006.83 393.711 846.162 464.129 779.853C469.384 774.59 475.005 769.707 480.952 765.24C602.044 679.528 713.414 955.806 811.833 915.705C897.13 880.929 827.996 616.017 921.916 526.594C952.699 497.157 999.078 494.443 1065.74 519.889C1119.45 540.295 1118.78 507.13 1126.82 433.499C1137.08 339.877 1170.8 235.763 1311.57 213.454" stroke="url(#paint25_linear_6_2718)" stroke-width="2.56532" stroke-linecap="round" stroke-linejoin="round" stroke-dasharray="0.01 6.43"/>
</g>
<g opacity="0.17">
<path d="M-368.859 1265.01C-47.9665 1176.81 -69.6396 891.341 72.0876 923.102C91.7937 927.768 110.496 935.95 127.295 947.256C239.673 1020.28 302.795 1041.93 341.791 1035.3C429.995 1020.34 399.49 853.427 470.667 777.151C475.933 771.271 481.663 765.825 487.801 760.865C611.345 664.456 722.318 945.441 822.243 907.184C906.405 874.956 841.743 622.261 932.564 531.597C962.412 501.731 1007.61 494.439 1075.04 515.083C1127.85 531.311 1125.24 490.382 1131.42 416.409C1139.09 325.232 1166.21 219.029 1302.81 183.346" stroke="url(#paint26_linear_6_2718)" stroke-width="2.56532" stroke-linecap="round" stroke-linejoin="round" stroke-dasharray="0.01 6.41"/>
</g>
<g opacity="0.13">
<path d="M-371.599 1282.96C-50.2347 1198.44 -73.5585 877.255 70.8002 914.306C87.2314 918.447 105.9 927.086 127.064 941.763C242.554 1021.87 308.872 1048.37 349.597 1043.92C441.811 1033.78 405.2 860.997 477.401 774.48C482.708 768.012 488.551 762.002 494.867 756.514C621.016 649.594 731.461 935.024 832.87 898.688C915.712 869.019 855.514 628.592 943.371 536.667C972.255 506.288 1016.51 494.597 1084.49 510.323C1136.45 522.359 1131.94 473.652 1136.16 399.365C1141.19 310.633 1161.8 202.305 1294.03 153.338" stroke="url(#paint27_linear_6_2718)" stroke-width="2.56532" stroke-linecap="round" stroke-linejoin="round" stroke-dasharray="0.01 6.41"/>
</g>
<g opacity="0.1">
<path d="M-374.337 1300.91C-15.9797 1210.93 -87.4828 778.705 126.913 936.221C533.399 1235.06 363.553 879.017 501.815 752.013C630.264 634.139 740.473 924.342 843.4 890.035C951.869 853.884 817.556 462.467 1093.94 505.421C1204.39 522.616 1046.77 239.169 1285.45 123.148" stroke="url(#paint28_linear_6_2718)" stroke-width="2.56532" stroke-linecap="round" stroke-linejoin="round" stroke-dasharray="0.01 6.41"/>
</g>
<path style="mix-blend-mode:color-dodge" d="M1085.32 531.212C1142.21 524.126 949.316 845.226 840.906 638.729C702.784 375.847 673.338 457.427 675.375 438.383C677.254 421.339 749.183 464.644 844.33 494.744C945.327 526.826 1016.12 539.84 1085.32 531.212Z" fill="url(#paint29_radial_6_2718)"/>
<path style="mix-blend-mode:color-dodge" d="M1458.68 845.848C1276.63 664.668 1131.96 660.437 1019.62 826.551C959.038 916.258 1065.9 630.336 1073.4 612.737C1185.8 347.146 1097.01 221.898 1213.27 242.051C1489.27 290.109 1501.89 888.756 1458.68 845.848Z" fill="url(#paint30_radial_6_2718)"/>
<path style="mix-blend-mode:color-dodge" d="M569.592 1101.71C611.81 1037.14 608.078 978.317 598.875 614.088C593.594 405.354 846.46 506.708 906.147 836.326C909.203 853.225 836.3 892.446 761.357 958.418C664.88 1043.37 540.077 1146.72 569.592 1101.71Z" fill="url(#paint31_radial_6_2718)"/>
<path style="mix-blend-mode:color-dodge" d="M560.096 715.777C607.348 683.328 447.639 1134.64 351.509 922.238C236.031 667.052 209.837 730.303 211.909 711.365C213.766 694.328 276.183 778.26 355.165 790.511C414.151 799.667 423.328 809.698 560.096 715.777Z" fill="url(#paint32_radial_6_2718)"/>
<path style="mix-blend-mode:color-dodge" d="M148.712 920.862C198.844 893.082 116.696 1287.12 45.7618 1085.55C-38.5016 846.052 -106.709 869.325 -74.1363 852.094C-58.9501 844.042 3.50337 940.576 31.2334 907.911C77.9689 852.912 74.1749 962.321 148.712 920.862Z" fill="url(#paint33_radial_6_2718)"/>
<path style="mix-blend-mode:color-dodge" opacity="0.5" d="M938.345 517.064C958.098 463.803 909.08 396.521 828.859 366.786C748.639 337.052 667.595 356.125 647.843 409.387C628.09 462.649 677.108 529.93 757.329 559.665C837.549 589.399 918.593 570.326 938.345 517.064Z" fill="url(#paint34_radial_6_2718)"/>
<path style="mix-blend-mode:color-dodge" d="M80.3609 1169.48C109.328 1158.26 114.128 1100.93 91.0815 1041.43C68.035 981.922 25.8695 942.777 -3.09784 953.996C-32.0652 965.214 -36.865 1022.55 -13.8185 1082.05C9.228 1141.56 51.3936 1180.7 80.3609 1169.48Z" fill="url(#paint35_radial_6_2718)"/>
<path style="mix-blend-mode:color-dodge" opacity="0.5" d="M609.648 1153.27C644.2 1122.94 655.628 1079.47 635.174 1056.17C614.719 1032.87 570.128 1038.57 535.576 1068.9C501.024 1099.22 489.595 1142.7 510.05 1165.99C530.504 1189.29 575.096 1183.6 609.648 1153.27Z" fill="url(#paint36_radial_6_2718)"/>
<path style="mix-blend-mode:color-dodge" opacity="0.16" d="M895.341 918.222C979.559 596.686 763.913 261.715 413.681 170.042C63.4504 78.3693 -288.74 264.71 -372.958 586.246C-457.176 907.781 -241.53 1242.75 108.701 1334.43C458.932 1426.1 811.123 1239.76 895.341 918.222Z" fill="url(#paint37_radial_6_2718)"/>
</g>
</g>
<defs>
<linearGradient id="paint0_linear_6_2718" x1="1552.66" y1="-303.99" x2="-205.225" y2="1273.68" gradientUnits="userSpaceOnUse">
<stop stop-color="#C37EFF"/>
<stop offset="1" stop-color="#3A0B63"/>
</linearGradient>
<radialGradient id="paint1_radial_6_2718" cx="0" cy="0" r="1" gradientUnits="userSpaceOnUse" gradientTransform="translate(1045.64 716.154) rotate(14.6681) scale(659.583 730.156)">
<stop stop-color="white" stop-opacity="0.5"/>
<stop offset="0.01" stop-color="#F9F9F9" stop-opacity="0.56"/>
<stop offset="0.02" stop-color="#EAEAEA" stop-opacity="0.71"/>
<stop offset="0.03" stop-color="#DCDCDC" stop-opacity="0.86"/>
<stop offset="0.15" stop-color="#CACACA" stop-opacity="0.79"/>
<stop offset="0.39" stop-color="#999999" stop-opacity="0.6"/>
<stop offset="0.71" stop-color="#4C4C4C" stop-opacity="0.3"/>
<stop offset="1" stop-opacity="0"/>
</radialGradient>
<linearGradient id="paint2_linear_6_2718" x1="528.001" y1="1238.9" x2="707.92" y2="410.81" gradientUnits="userSpaceOnUse">
<stop stop-color="#005AD5"/>
<stop offset="0.05" stop-color="#085FCE"/>
<stop offset="0.14" stop-color="#1F6DBA"/>
<stop offset="0.25" stop-color="#44839A"/>
<stop offset="0.37" stop-color="#77A26D"/>
<stop offset="0.5" stop-color="#B8C934"/>
<stop offset="0.62" stop-color="#F4ED00"/>
<stop offset="0.66" stop-color="#F6D827"/>
<stop offset="0.76" stop-color="#F9B16D"/>
<stop offset="0.84" stop-color="#FC93A4"/>
<stop offset="0.91" stop-color="#FD7DCC"/>
<stop offset="0.97" stop-color="#FF6FE5"/>
<stop offset="1" stop-color="#FF6AEE"/>
</linearGradient>
<linearGradient id="paint3_linear_6_2718" x1="522.905" y1="1229.14" x2="700.532" y2="411.576" gradientUnits="userSpaceOnUse">
<stop stop-color="#005AD5"/>
<stop offset="0.05" stop-color="#085FCE"/>
<stop offset="0.14" stop-color="#1F6DBA"/>
<stop offset="0.25" stop-color="#44839A"/>
<stop offset="0.37" stop-color="#77A26D"/>
<stop offset="0.5" stop-color="#B8C934"/>
<stop offset="0.62" stop-color="#F4ED00"/>
<stop offset="0.66" stop-color="#F6D827"/>
<stop offset="0.76" stop-color="#F9B16D"/>
<stop offset="0.84" stop-color="#FC93A4"/>
<stop offset="0.91" stop-color="#FD7DCC"/>
<stop offset="0.97" stop-color="#FF6FE5"/>
<stop offset="1" stop-color="#FF6AEE"/>
</linearGradient>
<linearGradient id="paint4_linear_6_2718" x1="517.815" y1="1219.4" x2="693.157" y2="412.315" gradientUnits="userSpaceOnUse">
<stop stop-color="#005AD5"/>
<stop offset="0.05" stop-color="#085FCE"/>
<stop offset="0.14" stop-color="#1F6DBA"/>
<stop offset="0.25" stop-color="#44839A"/>
<stop offset="0.37" stop-color="#77A26D"/>
<stop offset="0.5" stop-color="#B8C934"/>
<stop offset="0.62" stop-color="#F4ED00"/>
<stop offset="0.66" stop-color="#F6D827"/>
<stop offset="0.76" stop-color="#F9B16D"/>
<stop offset="0.84" stop-color="#FC93A4"/>
<stop offset="0.91" stop-color="#FD7DCC"/>
<stop offset="0.97" stop-color="#FF6FE5"/>
<stop offset="1" stop-color="#FF6AEE"/>
</linearGradient>
<linearGradient id="paint5_linear_6_2718" x1="512.692" y1="1209.69" x2="685.778" y2="413.033" gradientUnits="userSpaceOnUse">
<stop stop-color="#005AD5"/>
<stop offset="0.05" stop-color="#085FCE"/>
<stop offset="0.14" stop-color="#1F6DBA"/>
<stop offset="0.25" stop-color="#44839A"/>
<stop offset="0.37" stop-color="#77A26D"/>
<stop offset="0.5" stop-color="#B8C934"/>
<stop offset="0.62" stop-color="#F4ED00"/>
<stop offset="0.66" stop-color="#F6D827"/>
<stop offset="0.76" stop-color="#F9B16D"/>
<stop offset="0.84" stop-color="#FC93A4"/>
<stop offset="0.91" stop-color="#FD7DCC"/>
<stop offset="0.97" stop-color="#FF6FE5"/>
<stop offset="1" stop-color="#FF6AEE"/>
</linearGradient>
<linearGradient id="paint6_linear_6_2718" x1="507.593" y1="1200" x2="678.409" y2="413.723" gradientUnits="userSpaceOnUse">
<stop stop-color="#005AD5"/>
<stop offset="0.05" stop-color="#085FCE"/>
<stop offset="0.14" stop-color="#1F6DBA"/>
<stop offset="0.25" stop-color="#44839A"/>
<stop offset="0.37" stop-color="#77A26D"/>
<stop offset="0.5" stop-color="#B8C934"/>
<stop offset="0.62" stop-color="#F4ED00"/>
<stop offset="0.66" stop-color="#F6D827"/>
<stop offset="0.76" stop-color="#F9B16D"/>
<stop offset="0.84" stop-color="#FC93A4"/>
<stop offset="0.91" stop-color="#FD7DCC"/>
<stop offset="0.97" stop-color="#FF6FE5"/>
<stop offset="1" stop-color="#FF6AEE"/>
</linearGradient>
<linearGradient id="paint7_linear_6_2718" x1="502.461" y1="1190.34" x2="671.058" y2="414.384" gradientUnits="userSpaceOnUse">
<stop stop-color="#005AD5"/>
<stop offset="0.05" stop-color="#085FCE"/>
<stop offset="0.14" stop-color="#1F6DBA"/>
<stop offset="0.25" stop-color="#44839A"/>
<stop offset="0.37" stop-color="#77A26D"/>
<stop offset="0.5" stop-color="#B8C934"/>
<stop offset="0.62" stop-color="#F4ED00"/>
<stop offset="0.66" stop-color="#F6D827"/>
<stop offset="0.76" stop-color="#F9B16D"/>
<stop offset="0.84" stop-color="#FC93A4"/>
<stop offset="0.91" stop-color="#FD7DCC"/>
<stop offset="0.97" stop-color="#FF6FE5"/>
<stop offset="1" stop-color="#FF6AEE"/>
</linearGradient>
<linearGradient id="paint8_linear_6_2718" x1="497.335" y1="1180.71" x2="663.706" y2="414.974" gradientUnits="userSpaceOnUse">
<stop stop-color="#005AD5"/>
<stop offset="0.05" stop-color="#085FCE"/>
<stop offset="0.14" stop-color="#1F6DBA"/>
<stop offset="0.25" stop-color="#44839A"/>
<stop offset="0.37" stop-color="#77A26D"/>
<stop offset="0.5" stop-color="#B8C934"/>
<stop offset="0.62" stop-color="#F4ED00"/>
<stop offset="0.66" stop-color="#F6D827"/>
<stop offset="0.76" stop-color="#F9B16D"/>
<stop offset="0.84" stop-color="#FC93A4"/>
<stop offset="0.91" stop-color="#FD7DCC"/>
<stop offset="0.97" stop-color="#FF6FE5"/>
<stop offset="1" stop-color="#FF6AEE"/>
</linearGradient>
<linearGradient id="paint9_linear_6_2718" x1="492.18" y1="1171.13" x2="656.348" y2="415.543" gradientUnits="userSpaceOnUse">
<stop stop-color="#005AD5"/>
<stop offset="0.05" stop-color="#085FCE"/>
<stop offset="0.14" stop-color="#1F6DBA"/>
<stop offset="0.25" stop-color="#44839A"/>
<stop offset="0.37" stop-color="#77A26D"/>
<stop offset="0.5" stop-color="#B8C934"/>
<stop offset="0.62" stop-color="#F4ED00"/>
<stop offset="0.66" stop-color="#F6D827"/>
<stop offset="0.76" stop-color="#F9B16D"/>
<stop offset="0.84" stop-color="#FC93A4"/>
<stop offset="0.91" stop-color="#FD7DCC"/>
<stop offset="0.97" stop-color="#FF6FE5"/>
<stop offset="1" stop-color="#FF6AEE"/>
</linearGradient>
<linearGradient id="paint10_linear_6_2718" x1="486.603" y1="1163.61" x2="649.018" y2="416.056" gradientUnits="userSpaceOnUse">
<stop stop-color="#005AD5"/>
<stop offset="0.05" stop-color="#085FCE"/>
<stop offset="0.14" stop-color="#1F6DBA"/>
<stop offset="0.25" stop-color="#44839A"/>
<stop offset="0.37" stop-color="#77A26D"/>
<stop offset="0.5" stop-color="#B8C934"/>
<stop offset="0.62" stop-color="#F4ED00"/>
<stop offset="0.66" stop-color="#F6D827"/>
<stop offset="0.76" stop-color="#F9B16D"/>
<stop offset="0.84" stop-color="#FC93A4"/>
<stop offset="0.91" stop-color="#FD7DCC"/>
<stop offset="0.97" stop-color="#FF6FE5"/>
<stop offset="1" stop-color="#FF6AEE"/>
</linearGradient>
<linearGradient id="paint11_linear_6_2718" x1="475.868" y1="1179.7" x2="643.806" y2="406.751" gradientUnits="userSpaceOnUse">
<stop stop-color="#005AD5"/>
<stop offset="0.05" stop-color="#085FCE"/>
<stop offset="0.14" stop-color="#1F6DBA"/>
<stop offset="0.25" stop-color="#44839A"/>
<stop offset="0.37" stop-color="#77A26D"/>
<stop offset="0.5" stop-color="#B8C934"/>
<stop offset="0.62" stop-color="#F4ED00"/>
<stop offset="0.66" stop-color="#F6D827"/>
<stop offset="0.76" stop-color="#F9B16D"/>
<stop offset="0.84" stop-color="#FC93A4"/>
<stop offset="0.91" stop-color="#FD7DCC"/>
<stop offset="0.97" stop-color="#FF6FE5"/>
<stop offset="1" stop-color="#FF6AEE"/>
</linearGradient>
<linearGradient id="paint12_linear_6_2718" x1="465.135" y1="1195.8" x2="641.03" y2="386.26" gradientUnits="userSpaceOnUse">
<stop stop-color="#005AD5"/>
<stop offset="0.05" stop-color="#085FCE"/>
<stop offset="0.14" stop-color="#1F6DBA"/>
<stop offset="0.25" stop-color="#44839A"/>
<stop offset="0.37" stop-color="#77A26D"/>
<stop offset="0.5" stop-color="#B8C934"/>
<stop offset="0.62" stop-color="#F4ED00"/>
<stop offset="0.66" stop-color="#F6D827"/>
<stop offset="0.76" stop-color="#F9B16D"/>
<stop offset="0.84" stop-color="#FC93A4"/>
<stop offset="0.91" stop-color="#FD7DCC"/>
<stop offset="0.97" stop-color="#FF6FE5"/>
<stop offset="1" stop-color="#FF6AEE"/>
</linearGradient>
<linearGradient id="paint13_linear_6_2718" x1="454.401" y1="1211.89" x2="638.307" y2="365.424" gradientUnits="userSpaceOnUse">
<stop stop-color="#005AD5"/>
<stop offset="0.05" stop-color="#085FCE"/>
<stop offset="0.14" stop-color="#1F6DBA"/>
<stop offset="0.25" stop-color="#44839A"/>
<stop offset="0.37" stop-color="#77A26D"/>
<stop offset="0.5" stop-color="#B8C934"/>
<stop offset="0.62" stop-color="#F4ED00"/>
<stop offset="0.66" stop-color="#F6D827"/>
<stop offset="0.76" stop-color="#F9B16D"/>
<stop offset="0.84" stop-color="#FC93A4"/>
<stop offset="0.91" stop-color="#FD7DCC"/>
<stop offset="0.97" stop-color="#FF6FE5"/>
<stop offset="1" stop-color="#FF6AEE"/>
</linearGradient>
<linearGradient id="paint14_linear_6_2718" x1="443.667" y1="1227.99" x2="635.688" y2="344.177" gradientUnits="userSpaceOnUse">
<stop stop-color="#005AD5"/>
<stop offset="0.05" stop-color="#085FCE"/>
<stop offset="0.14" stop-color="#1F6DBA"/>
<stop offset="0.25" stop-color="#44839A"/>
<stop offset="0.37" stop-color="#77A26D"/>
<stop offset="0.5" stop-color="#B8C934"/>
<stop offset="0.62" stop-color="#F4ED00"/>
<stop offset="0.66" stop-color="#F6D827"/>
<stop offset="0.76" stop-color="#F9B16D"/>
<stop offset="0.84" stop-color="#FC93A4"/>
<stop offset="0.91" stop-color="#FD7DCC"/>
<stop offset="0.97" stop-color="#FF6FE5"/>
<stop offset="1" stop-color="#FF6AEE"/>
</linearGradient>
<linearGradient id="paint15_linear_6_2718" x1="432.933" y1="1244.08" x2="633.174" y2="322.452" gradientUnits="userSpaceOnUse">
<stop stop-color="#005AD5"/>
<stop offset="0.05" stop-color="#085FCE"/>
<stop offset="0.14" stop-color="#1F6DBA"/>
<stop offset="0.25" stop-color="#44839A"/>
<stop offset="0.37" stop-color="#77A26D"/>
<stop offset="0.5" stop-color="#B8C934"/>
<stop offset="0.62" stop-color="#F4ED00"/>
<stop offset="0.66" stop-color="#F6D827"/>
<stop offset="0.76" stop-color="#F9B16D"/>
<stop offset="0.84" stop-color="#FC93A4"/>
<stop offset="0.91" stop-color="#FD7DCC"/>
<stop offset="0.97" stop-color="#FF6FE5"/>
<stop offset="1" stop-color="#FF6AEE"/>
</linearGradient>
<linearGradient id="paint16_linear_6_2718" x1="422.192" y1="1260.15" x2="630.795" y2="300.119" gradientUnits="userSpaceOnUse">
<stop stop-color="#005AD5"/>
<stop offset="0.05" stop-color="#085FCE"/>
<stop offset="0.14" stop-color="#1F6DBA"/>
<stop offset="0.25" stop-color="#44839A"/>
<stop offset="0.37" stop-color="#77A26D"/>
<stop offset="0.5" stop-color="#B8C934"/>
<stop offset="0.62" stop-color="#F4ED00"/>
<stop offset="0.66" stop-color="#F6D827"/>
<stop offset="0.76" stop-color="#F9B16D"/>
<stop offset="0.84" stop-color="#FC93A4"/>
<stop offset="0.91" stop-color="#FD7DCC"/>
<stop offset="0.97" stop-color="#FF6FE5"/>
<stop offset="1" stop-color="#FF6AEE"/>
</linearGradient>
<linearGradient id="paint17_linear_6_2718" x1="411.477" y1="1276.24" x2="628.548" y2="277.109" gradientUnits="userSpaceOnUse">
<stop stop-color="#005AD5"/>
<stop offset="0.05" stop-color="#085FCE"/>
<stop offset="0.14" stop-color="#1F6DBA"/>
<stop offset="0.25" stop-color="#44839A"/>
<stop offset="0.37" stop-color="#77A26D"/>
<stop offset="0.5" stop-color="#B8C934"/>
<stop offset="0.62" stop-color="#F4ED00"/>
<stop offset="0.66" stop-color="#F6D827"/>
<stop offset="0.76" stop-color="#F9B16D"/>
<stop offset="0.84" stop-color="#FC93A4"/>
<stop offset="0.91" stop-color="#FD7DCC"/>
<stop offset="0.97" stop-color="#FF6FE5"/>
<stop offset="1" stop-color="#FF6AEE"/>
</linearGradient>
<linearGradient id="paint18_linear_6_2718" x1="400.744" y1="1292.34" x2="626.514" y2="253.209" gradientUnits="userSpaceOnUse">
<stop stop-color="#005AD5"/>
<stop offset="0.05" stop-color="#085FCE"/>
<stop offset="0.14" stop-color="#1F6DBA"/>
<stop offset="0.25" stop-color="#44839A"/>
<stop offset="0.37" stop-color="#77A26D"/>
<stop offset="0.5" stop-color="#B8C934"/>
<stop offset="0.62" stop-color="#F4ED00"/>
<stop offset="0.66" stop-color="#F6D827"/>
<stop offset="0.76" stop-color="#F9B16D"/>
<stop offset="0.84" stop-color="#FC93A4"/>
<stop offset="0.91" stop-color="#FD7DCC"/>
<stop offset="0.97" stop-color="#FF6FE5"/>
<stop offset="1" stop-color="#FF6AEE"/>
</linearGradient>
<linearGradient id="paint19_linear_6_2718" x1="390.01" y1="1308.43" x2="624.712" y2="228.272" gradientUnits="userSpaceOnUse">
<stop stop-color="#005AD5"/>
<stop offset="0.05" stop-color="#085FCE"/>
<stop offset="0.14" stop-color="#1F6DBA"/>
<stop offset="0.25" stop-color="#44839A"/>
<stop offset="0.37" stop-color="#77A26D"/>
<stop offset="0.5" stop-color="#B8C934"/>
<stop offset="0.62" stop-color="#F4ED00"/>
<stop offset="0.66" stop-color="#F6D827"/>
<stop offset="0.76" stop-color="#F9B16D"/>
<stop offset="0.84" stop-color="#FC93A4"/>
<stop offset="0.91" stop-color="#FD7DCC"/>
<stop offset="0.97" stop-color="#FF6FE5"/>
<stop offset="1" stop-color="#FF6AEE"/>
</linearGradient>
<linearGradient id="paint20_linear_6_2718" x1="379.298" y1="1324.52" x2="623.18" y2="201.98" gradientUnits="userSpaceOnUse">
<stop stop-color="#005AD5"/>
<stop offset="0.05" stop-color="#085FCE"/>
<stop offset="0.14" stop-color="#1F6DBA"/>
<stop offset="0.25" stop-color="#44839A"/>
<stop offset="0.37" stop-color="#77A26D"/>
<stop offset="0.5" stop-color="#B8C934"/>
<stop offset="0.62" stop-color="#F4ED00"/>
<stop offset="0.66" stop-color="#F6D827"/>
<stop offset="0.76" stop-color="#F9B16D"/>
<stop offset="0.84" stop-color="#FC93A4"/>
<stop offset="0.91" stop-color="#FD7DCC"/>
<stop offset="0.97" stop-color="#FF6FE5"/>
<stop offset="1" stop-color="#FF6AEE"/>
</linearGradient>
<linearGradient id="paint21_linear_6_2718" x1="368.591" y1="1340.63" x2="622.071" y2="174.001" gradientUnits="userSpaceOnUse">
<stop stop-color="#005AD5"/>
<stop offset="0.05" stop-color="#085FCE"/>
<stop offset="0.14" stop-color="#1F6DBA"/>
<stop offset="0.25" stop-color="#44839A"/>
<stop offset="0.37" stop-color="#77A26D"/>
<stop offset="0.5" stop-color="#B8C934"/>
<stop offset="0.62" stop-color="#F4ED00"/>
<stop offset="0.66" stop-color="#F6D827"/>
<stop offset="0.76" stop-color="#F9B16D"/>
<stop offset="0.84" stop-color="#FC93A4"/>
<stop offset="0.91" stop-color="#FD7DCC"/>
<stop offset="0.97" stop-color="#FF6FE5"/>
<stop offset="1" stop-color="#FF6AEE"/>
</linearGradient>
<linearGradient id="paint22_linear_6_2718" x1="357.907" y1="1356.73" x2="621.172" y2="145.134" gradientUnits="userSpaceOnUse">
<stop stop-color="#005AD5"/>
<stop offset="0.05" stop-color="#085FCE"/>
<stop offset="0.14" stop-color="#1F6DBA"/>
<stop offset="0.25" stop-color="#44839A"/>
<stop offset="0.37" stop-color="#77A26D"/>
<stop offset="0.5" stop-color="#B8C934"/>
<stop offset="0.62" stop-color="#F4ED00"/>
<stop offset="0.66" stop-color="#F6D827"/>
<stop offset="0.76" stop-color="#F9B16D"/>
<stop offset="0.84" stop-color="#FC93A4"/>
<stop offset="0.91" stop-color="#FD7DCC"/>
<stop offset="0.97" stop-color="#FF6FE5"/>
<stop offset="1" stop-color="#FF6AEE"/>
</linearGradient>
<linearGradient id="paint23_linear_6_2718" x1="347.25" y1="1372.85" x2="620.273" y2="116.267" gradientUnits="userSpaceOnUse">
<stop stop-color="#005AD5"/>
<stop offset="0.05" stop-color="#085FCE"/>
<stop offset="0.14" stop-color="#1F6DBA"/>
<stop offset="0.25" stop-color="#44839A"/>
<stop offset="0.37" stop-color="#77A26D"/>
<stop offset="0.5" stop-color="#B8C934"/>
<stop offset="0.62" stop-color="#F4ED00"/>
<stop offset="0.66" stop-color="#F6D827"/>
<stop offset="0.76" stop-color="#F9B16D"/>
<stop offset="0.84" stop-color="#FC93A4"/>
<stop offset="0.91" stop-color="#FD7DCC"/>
<stop offset="0.97" stop-color="#FF6FE5"/>
<stop offset="1" stop-color="#FF6AEE"/>
</linearGradient>
<linearGradient id="paint24_linear_6_2718" x1="336.607" y1="1388.94" x2="619.393" y2="87.3932" gradientUnits="userSpaceOnUse">
<stop stop-color="#005AD5"/>
<stop offset="0.05" stop-color="#085FCE"/>
<stop offset="0.14" stop-color="#1F6DBA"/>
<stop offset="0.25" stop-color="#44839A"/>
<stop offset="0.37" stop-color="#77A26D"/>
<stop offset="0.5" stop-color="#B8C934"/>
<stop offset="0.62" stop-color="#F4ED00"/>
<stop offset="0.66" stop-color="#F6D827"/>
<stop offset="0.76" stop-color="#F9B16D"/>
<stop offset="0.84" stop-color="#FC93A4"/>
<stop offset="0.91" stop-color="#FD7DCC"/>
<stop offset="0.97" stop-color="#FF6FE5"/>
<stop offset="1" stop-color="#FF6AEE"/>
</linearGradient>
<linearGradient id="paint25_linear_6_2718" x1="325.978" y1="1405.07" x2="618.543" y2="58.5341" gradientUnits="userSpaceOnUse">
<stop stop-color="#005AD5"/>
<stop offset="0.05" stop-color="#085FCE"/>
<stop offset="0.14" stop-color="#1F6DBA"/>
<stop offset="0.25" stop-color="#44839A"/>
<stop offset="0.37" stop-color="#77A26D"/>
<stop offset="0.5" stop-color="#B8C934"/>
<stop offset="0.62" stop-color="#F4ED00"/>
<stop offset="0.66" stop-color="#F6D827"/>
<stop offset="0.76" stop-color="#F9B16D"/>
<stop offset="0.84" stop-color="#FC93A4"/>
<stop offset="0.91" stop-color="#FD7DCC"/>
<stop offset="0.97" stop-color="#FF6FE5"/>
<stop offset="1" stop-color="#FF6AEE"/>
</linearGradient>
<linearGradient id="paint26_linear_6_2718" x1="315.395" y1="1421.18" x2="617.716" y2="29.667" gradientUnits="userSpaceOnUse">
<stop stop-color="#005AD5"/>
<stop offset="0.05" stop-color="#085FCE"/>
<stop offset="0.14" stop-color="#1F6DBA"/>
<stop offset="0.25" stop-color="#44839A"/>
<stop offset="0.37" stop-color="#77A26D"/>
<stop offset="0.5" stop-color="#B8C934"/>
<stop offset="0.62" stop-color="#F4ED00"/>
<stop offset="0.66" stop-color="#F6D827"/>
<stop offset="0.76" stop-color="#F9B16D"/>
<stop offset="0.84" stop-color="#FC93A4"/>
<stop offset="0.91" stop-color="#FD7DCC"/>
<stop offset="0.97" stop-color="#FF6FE5"/>
<stop offset="1" stop-color="#FF6AEE"/>
</linearGradient>
<linearGradient id="paint27_linear_6_2718" x1="304.836" y1="1437.32" x2="616.936" y2="0.808882" gradientUnits="userSpaceOnUse">
<stop stop-color="#005AD5"/>
<stop offset="0.05" stop-color="#085FCE"/>
<stop offset="0.14" stop-color="#1F6DBA"/>
<stop offset="0.25" stop-color="#44839A"/>
<stop offset="0.37" stop-color="#77A26D"/>
<stop offset="0.5" stop-color="#B8C934"/>
<stop offset="0.62" stop-color="#F4ED00"/>
<stop offset="0.66" stop-color="#F6D827"/>
<stop offset="0.76" stop-color="#F9B16D"/>
<stop offset="0.84" stop-color="#FC93A4"/>
<stop offset="0.91" stop-color="#FD7DCC"/>
<stop offset="0.97" stop-color="#FF6FE5"/>
<stop offset="1" stop-color="#FF6AEE"/>
</linearGradient>
<linearGradient id="paint28_linear_6_2718" x1="294.279" y1="1453.45" x2="616.164" y2="-28.0287" gradientUnits="userSpaceOnUse">
<stop stop-color="#005AD5"/>
<stop offset="0.05" stop-color="#085FCE"/>
<stop offset="0.14" stop-color="#1F6DBA"/>
<stop offset="0.25" stop-color="#44839A"/>
<stop offset="0.37" stop-color="#77A26D"/>
<stop offset="0.5" stop-color="#B8C934"/>
<stop offset="0.62" stop-color="#F4ED00"/>
<stop offset="0.66" stop-color="#F6D827"/>
<stop offset="0.76" stop-color="#F9B16D"/>
<stop offset="0.84" stop-color="#FC93A4"/>
<stop offset="0.91" stop-color="#FD7DCC"/>
<stop offset="0.97" stop-color="#FF6FE5"/>
<stop offset="1" stop-color="#FF6AEE"/>
</linearGradient>
<radialGradient id="paint29_radial_6_2718" cx="0" cy="0" r="1" gradientUnits="userSpaceOnUse" gradientTransform="translate(860.472 492.917) rotate(12.1448) scale(203.9 117.441)">
<stop stop-color="white"/>
<stop offset="0.01" stop-color="#DADADA" stop-opacity="0.85"/>
<stop offset="0.02" stop-color="#BEBEBE" stop-opacity="0.75"/>
<stop offset="0.31" stop-color="#BBBBBB" stop-opacity="0.73"/>
<stop offset="0.47" stop-color="#B0B0B0" stop-opacity="0.69"/>
<stop offset="0.6" stop-color="#9E9E9E" stop-opacity="0.62"/>
<stop offset="0.71" stop-color="#838383" stop-opacity="0.52"/>
<stop offset="0.81" stop-color="#616161" stop-opacity="0.38"/>
<stop offset="0.9" stop-color="#383838" stop-opacity="0.22"/>
<stop offset="0.99" stop-color="#070707" stop-opacity="0.03"/>
<stop offset="1" stop-opacity="0"/>
</radialGradient>
<radialGradient id="paint30_radial_6_2718" cx="0" cy="0" r="1" gradientUnits="userSpaceOnUse" gradientTransform="translate(1218.48 900.892) rotate(-0.0641417) scale(302.074 751.034)">
<stop offset="0.02" stop-color="#BEBEBE" stop-opacity="0.75"/>
<stop offset="0.03" stop-color="#C6C6C6" stop-opacity="0.78"/>
<stop offset="0.04" stop-color="#F8F8F8" stop-opacity="0.97"/>
<stop offset="0.05" stop-color="white"/>
<stop offset="0.35" stop-color="#A9A9A9" stop-opacity="0.66"/>
<stop offset="0.8" stop-color="#313131" stop-opacity="0.19"/>
<stop offset="1" stop-opacity="0"/>
</radialGradient>
<radialGradient id="paint31_radial_6_2718" cx="0" cy="0" r="1" gradientUnits="userSpaceOnUse" gradientTransform="translate(532.477 932.618) rotate(144.74) scale(327.863 189.422)">
<stop stop-color="white"/>
<stop offset="0.01" stop-color="#DADADA" stop-opacity="0.85"/>
<stop offset="0.02" stop-color="#BEBEBE" stop-opacity="0.75"/>
<stop offset="0.31" stop-color="#BBBBBB" stop-opacity="0.73"/>
<stop offset="0.47" stop-color="#B0B0B0" stop-opacity="0.69"/>
<stop offset="0.6" stop-color="#9E9E9E" stop-opacity="0.62"/>
<stop offset="0.71" stop-color="#838383" stop-opacity="0.52"/>
<stop offset="0.81" stop-color="#616161" stop-opacity="0.38"/>
<stop offset="0.9" stop-color="#383838" stop-opacity="0.22"/>
<stop offset="0.99" stop-color="#070707" stop-opacity="0.03"/>
<stop offset="1" stop-opacity="0"/>
</radialGradient>
<radialGradient id="paint32_radial_6_2718" cx="0" cy="0" r="1" gradientUnits="userSpaceOnUse" gradientTransform="translate(356.369 763.923) rotate(12.1448) scale(220.089 126.765)">
<stop stop-color="white" stop-opacity="0.75"/>
<stop offset="0.04" stop-color="white" stop-opacity="0.76"/>
<stop offset="0.06" stop-color="white" stop-opacity="0.79"/>
<stop offset="0.08" stop-color="white" stop-opacity="0.84"/>
<stop offset="0.09" stop-color="white" stop-opacity="0.92"/>
<stop offset="0.11" stop-color="white"/>
<stop offset="0.39" stop-color="#A9A9A9" stop-opacity="0.66"/>
<stop offset="0.81" stop-color="#313131" stop-opacity="0.19"/>
<stop offset="1" stop-opacity="0"/>
</radialGradient>
<radialGradient id="paint33_radial_6_2718" cx="0" cy="0" r="1" gradientUnits="userSpaceOnUse" gradientTransform="translate(22.859 1005.72) rotate(12.1448) scale(181.806 104.715)">
<stop stop-color="white"/>
<stop offset="0.01" stop-color="#DADADA" stop-opacity="0.85"/>
<stop offset="0.02" stop-color="#BEBEBE" stop-opacity="0.75"/>
<stop offset="0.31" stop-color="#BBBBBB" stop-opacity="0.73"/>
<stop offset="0.47" stop-color="#B0B0B0" stop-opacity="0.69"/>
<stop offset="0.6" stop-color="#9E9E9E" stop-opacity="0.62"/>
<stop offset="0.71" stop-color="#838383" stop-opacity="0.52"/>
<stop offset="0.81" stop-color="#616161" stop-opacity="0.38"/>
<stop offset="0.9" stop-color="#383838" stop-opacity="0.22"/>
<stop offset="0.99" stop-color="#070707" stop-opacity="0.03"/>
<stop offset="1" stop-opacity="0"/>
</radialGradient>
<radialGradient id="paint34_radial_6_2718" cx="0" cy="0" r="1" gradientUnits="userSpaceOnUse" gradientTransform="translate(793.731 461.635) rotate(20.3377) scale(154.908 102.235)">
<stop stop-color="white"/>
<stop offset="0.01" stop-color="#FAFAFA" stop-opacity="0.98"/>
<stop offset="0.02" stop-color="#EBEBEB" stop-opacity="0.92"/>
<stop offset="0.03" stop-color="#DCDCDC" stop-opacity="0.86"/>
<stop offset="0.15" stop-color="#CACACA" stop-opacity="0.79"/>
<stop offset="0.39" stop-color="#999999" stop-opacity="0.6"/>
<stop offset="0.71" stop-color="#4C4C4C" stop-opacity="0.3"/>
<stop offset="1" stop-opacity="0"/>
</radialGradient>
<radialGradient id="paint35_radial_6_2718" cx="0" cy="0" r="1" gradientUnits="userSpaceOnUse" gradientTransform="translate(46.6997 1058.73) rotate(-111.172) scale(115.537 56.5833)">
<stop stop-color="white"/>
<stop offset="0.01" stop-color="#FAFAFA" stop-opacity="0.98"/>
<stop offset="0.02" stop-color="#EBEBEB" stop-opacity="0.92"/>
<stop offset="0.03" stop-color="#DCDCDC" stop-opacity="0.86"/>
<stop offset="0.15" stop-color="#CACACA" stop-opacity="0.79"/>
<stop offset="0.39" stop-color="#999999" stop-opacity="0.6"/>
<stop offset="0.71" stop-color="#4C4C4C" stop-opacity="0.3"/>
<stop offset="1" stop-opacity="0"/>
</radialGradient>
<radialGradient id="paint36_radial_6_2718" cx="0" cy="0" r="1" gradientUnits="userSpaceOnUse" gradientTransform="translate(584.378 1116.8) rotate(-41.2735) scale(83.527 56.4732)">
<stop stop-color="white"/>
<stop offset="0.01" stop-color="#FAFAFA" stop-opacity="0.98"/>
<stop offset="0.02" stop-color="#EBEBEB" stop-opacity="0.92"/>
<stop offset="0.03" stop-color="#DCDCDC" stop-opacity="0.86"/>
<stop offset="0.15" stop-color="#CACACA" stop-opacity="0.79"/>
<stop offset="0.39" stop-color="#999999" stop-opacity="0.6"/>
<stop offset="0.71" stop-color="#4C4C4C" stop-opacity="0.3"/>
<stop offset="1" stop-opacity="0"/>
</radialGradient>
<radialGradient id="paint37_radial_6_2718" cx="0" cy="0" r="1" gradientUnits="userSpaceOnUse" gradientTransform="translate(258.693 751.175) rotate(14.6681) scale(655.231 601.697)">
<stop stop-color="white"/>
<stop offset="0.01" stop-color="#FAFAFA" stop-opacity="0.98"/>
<stop offset="0.02" stop-color="#EBEBEB" stop-opacity="0.92"/>
<stop offset="0.03" stop-color="#DCDCDC" stop-opacity="0.86"/>
<stop offset="0.15" stop-color="#CACACA" stop-opacity="0.79"/>
<stop offset="0.39" stop-color="#999999" stop-opacity="0.6"/>
<stop offset="0.71" stop-color="#4C4C4C" stop-opacity="0.3"/>
<stop offset="1" stop-opacity="0"/>
</radialGradient>
</defs>
</svg>
